<?xml version="1.0" standalone="no"?>
<svg xmlns:xlink="http://www.w3.org/1999/xlink" id="wave" style="transform:rotate(180deg); transition: 0.3s" viewBox="0 0 1440 100" version="1.1" xmlns="http://www.w3.org/2000/svg"><defs><linearGradient id="sw-gradient-0" x1="0" x2="0" y1="1" y2="0"><stop stop-color="rgba(255, 249, 234, 1)" offset="0%"/><stop stop-color="rgba(255, 249, 234, 1)" offset="100%"/></linearGradient></defs><path style="transform:translate(0, 0px); opacity:1" fill="url(#sw-gradient-0)" d="M0,40L34.3,43.3C68.6,47,137,53,206,50C274.3,47,343,33,411,25C480,17,549,13,617,21.7C685.7,30,754,50,823,56.7C891.4,63,960,57,1029,51.7C1097.1,47,1166,43,1234,35C1302.9,27,1371,13,1440,10C1508.6,7,1577,13,1646,21.7C1714.3,30,1783,40,1851,36.7C1920,33,1989,17,2057,13.3C2125.7,10,2194,20,2263,30C2331.4,40,2400,50,2469,48.3C2537.1,47,2606,33,2674,35C2742.9,37,2811,53,2880,61.7C2948.6,70,3017,70,3086,61.7C3154.3,53,3223,37,3291,26.7C3360,17,3429,13,3497,18.3C3565.7,23,3634,37,3703,41.7C3771.4,47,3840,43,3909,46.7C3977.1,50,4046,60,4114,68.3C4182.9,77,4251,83,4320,78.3C4388.6,73,4457,57,4526,43.3C4594.3,30,4663,20,4731,23.3C4800,27,4869,43,4903,51.7L4937.1,60L4937.1,100L4902.9,100C4868.6,100,4800,100,4731,100C4662.9,100,4594,100,4526,100C4457.1,100,4389,100,4320,100C4251.4,100,4183,100,4114,100C4045.7,100,3977,100,3909,100C3840,100,3771,100,3703,100C3634.3,100,3566,100,3497,100C3428.6,100,3360,100,3291,100C3222.9,100,3154,100,3086,100C3017.1,100,2949,100,2880,100C2811.4,100,2743,100,2674,100C2605.7,100,2537,100,2469,100C2400,100,2331,100,2263,100C2194.3,100,2126,100,2057,100C1988.6,100,1920,100,1851,100C1782.9,100,1714,100,1646,100C1577.1,100,1509,100,1440,100C1371.4,100,1303,100,1234,100C1165.7,100,1097,100,1029,100C960,100,891,100,823,100C754.3,100,686,100,617,100C548.6,100,480,100,411,100C342.9,100,274,100,206,100C137.1,100,69,100,34,100L0,100Z"/></svg>